<svg xmlns="http://www.w3.org/2000/svg" viewBox="0 0 960 544" width="960" height="544" role="img" aria-labelledby="ttl dsc">
  <title id="ttl">リクエストが通る段と、それぞれを走らせるスレッド</title>
  <desc id="dsc">TCP 接続がどのスレッドの上を渡っていくかを、3 つの帯で示しています。受付スレッドはリスナごとに 1 本あり、TCP と Unix ソケットのどちらもネットワーク ACL と接続数上限を確認したうえで、ソケットを単一のリアクタスレッドへ登録します。リアクタは登録済みソケットを監視し、読み取り可能になった接続をワーカプールへ渡し、後から応答の書き戻しも行います。ワーカはレート制限、ディスパッチ、コマンドハンドラを実行します。右側の帯は HTTP サーバで、独自のリスナとスレッドプールを持ち、リアクタは経由しません。どちらの入口も最後は同じ共有状態に至ります。</desc>

  <style>
    .bg    { fill:#f7f5f1 }
    .grp   { fill:#edeae4 }
    .chip  { fill:#ffffff; stroke:#d7d4cd }
    .card  { fill:#ffffff; stroke:#3f6b8a }
    .alt   { fill:#ffffff; stroke:#8a6a1f }
    .ln    { fill:none; stroke:#3f6b8a; stroke-width:1.4 }
    .ah    { fill:#3f6b8a }
    text   { font-family:Inter,"Helvetica Neue","Hiragino Sans","Noto Sans JP",Arial,sans-serif; fill:#1f2328 }
    .lbl   { font-size:11px; fill:#6e7781; letter-spacing:.06em }
    .s     { font-size:10.5px; fill:#6e7781 }
    .mono  { font-family:ui-monospace,SFMono-Regular,Menlo,Consolas,monospace; font-size:10.5px; fill:#3f6b8a }
    @media (prefers-color-scheme: dark) {
      .bg{fill:#0d1117} .grp{fill:#12171d}
      .chip{fill:#161b22;stroke:#30363d} .card{fill:#161b22;stroke:#7fb3d5} .alt{fill:#161b22;stroke:#d9b45c}
      .ln{stroke:#7fb3d5} .ah{fill:#7fb3d5} .mono{fill:#7fb3d5}
      text{fill:#e6edf3} .lbl{fill:#8b949e} .s{fill:#8b949e}
    }
  </style>

  <defs>
    <marker id="a" markerUnits="userSpaceOnUse" markerWidth="9" markerHeight="9" refX="8" refY="4.5" orient="auto">
      <path class="ah" d="M0,0 L9,4.5 L0,9 z"/>
    </marker>
  </defs>

  <rect class="bg" x="0" y="0" width="960" height="544" rx="12"/>

  <rect class="grp" x="24" y="56" width="676" height="92" rx="8"/>
  <text class="lbl" x="38" y="76">受付スレッド</text>
  <text class="s" x="200" y="76">リスナごとに 1 本、accept() でブロック</text>
  <rect class="chip" x="38" y="86" width="176" height="30" rx="5"/>
  <text class="s" x="126" y="105" text-anchor="middle">ConnectionAcceptor (TCP)</text>
  <rect class="chip" x="226" y="86" width="226" height="30" rx="5"/>
  <text class="s" x="339" y="105" text-anchor="middle">ConnectionAcceptor (Unix ソケット)</text>
  <text class="s" x="38" y="134">accept 後に <tspan class="mono">allow_cidrs</tspan>・接続数上限・IP ごとの上限を確認（Unix ソケットは ACL 対象外）</text>

  <path class="ln" d="M 126 148 V 172" marker-end="url(#a)"/>
  <path class="ln" d="M 339 148 V 172" marker-end="url(#a)"/>

  <rect class="grp" x="24" y="172" width="676" height="92" rx="8"/>
  <text class="lbl" x="38" y="192">リアクタスレッド</text>
  <text class="s" x="200" y="192">単一のイベントループ。登録済みソケットを保持</text>
  <rect class="chip" x="38" y="202" width="184" height="30" rx="5"/>
  <text class="s" x="130" y="221" text-anchor="middle">IoReactor イベントループ</text>
  <rect class="chip" x="234" y="202" width="222" height="30" rx="5"/>
  <text class="s" x="345" y="221" text-anchor="middle">EventMultiplexer · epoll / kqueue</text>
  <rect class="chip" x="468" y="202" width="98" height="30" rx="5"/>
  <text class="s" x="517" y="221" text-anchor="middle">CRLF 区切り</text>
  <text class="s" x="38" y="250">読み取り可能な接続をワーカプールへ渡し、応答の書き戻しも担当</text>

  <path class="ln" d="M 130 264 V 288" marker-end="url(#a)"/>
  <path class="ln" d="M 610 288 V 264" marker-end="url(#a)"/>
  <text class="s" x="620" y="280">応答</text>

  <rect class="grp" x="24" y="288" width="676" height="102" rx="8"/>
  <text class="lbl" x="38" y="308">ワーカプール</text>
  <text class="s" x="200" y="308"><tspan class="mono">perf.thread_pool_size</tspan> 本。1 リクエストを最後まで 1 ワーカが処理</text>
  <rect class="chip" x="38" y="318" width="136" height="32" rx="5"/>
  <text class="s" x="106" y="338" text-anchor="middle">DrainRequests</text>
  <path class="ln" d="M 174 334 H 192" marker-end="url(#a)"/>
  <rect class="chip" x="192" y="318" width="112" height="32" rx="5"/>
  <text class="s" x="248" y="338" text-anchor="middle">RateLimiter</text>
  <path class="ln" d="M 304 334 H 322" marker-end="url(#a)"/>
  <rect class="chip" x="322" y="318" width="150" height="32" rx="5"/>
  <text class="s" x="397" y="338" text-anchor="middle">RequestDispatcher</text>
  <path class="ln" d="M 472 334 H 490" marker-end="url(#a)"/>
  <rect class="chip" x="490" y="318" width="124" height="32" rx="5"/>
  <text class="s" x="552" y="338" text-anchor="middle">コマンドハンドラ</text>
  <text class="s" x="38" y="372">Dispatch は CommandParser で解析し、AUTH とスナップショットゲートを確認してから振り分ける</text>

  <rect class="grp" x="724" y="56" width="212" height="334" rx="8"/>
  <text class="lbl" x="738" y="76">HTTP サーバ</text>
  <text class="s" x="738" y="96">独自のリスナとスレッドプール</text>
  <text class="s" x="738" y="111">リアクタは経由しない</text>
  <rect class="chip" x="738" y="126" width="184" height="30" rx="5"/>
  <text class="s" x="830" y="145" text-anchor="middle">httplib リスナ</text>
  <path class="ln" d="M 830 156 V 174" marker-end="url(#a)"/>
  <rect class="chip" x="738" y="174" width="184" height="46" rx="5"/>
  <text class="s" x="830" y="193" text-anchor="middle">pre-routing ハンドラ</text>
  <text class="s" x="830" y="208" text-anchor="middle">allow_cidrs + RateLimiter</text>
  <path class="ln" d="M 830 220 V 238" marker-end="url(#a)"/>
  <rect class="chip" x="738" y="238" width="184" height="46" rx="5"/>
  <text class="s" x="830" y="257" text-anchor="middle">JSON ルートハンドラ</text>
  <text class="s" x="830" y="272" text-anchor="middle">Command を組み立てる</text>
  <path class="ln" d="M 830 284 V 302" marker-end="url(#a)"/>
  <rect class="chip" x="738" y="302" width="184" height="46" rx="5"/>
  <text class="s" x="830" y="321" text-anchor="middle">ApplyWrite または</text>
  <text class="s" x="830" y="336" text-anchor="middle">SimilarityEngine</text>
  <text class="s" x="738" y="372">CommandParser は通らない</text>

  <path class="ln" d="M 130 390 V 418" marker-end="url(#a)"/>
  <path class="ln" d="M 830 390 V 418" marker-end="url(#a)"/>

  <rect class="grp" x="24" y="418" width="912" height="84" rx="8"/>
  <text class="lbl" x="38" y="438">共有状態</text>
  <text class="s" x="200" y="438">HandlerContext は 1 つ。書き込みは単一ゲートで直列化</text>
  <rect class="alt" x="38" y="448" width="96" height="32" rx="5"/>
  <text class="s" x="86" y="468" text-anchor="middle">EventStore</text>
  <rect class="alt" x="146" y="448" width="136" height="32" rx="5"/>
  <text class="s" x="214" y="468" text-anchor="middle">CoOccurrenceIndex</text>
  <rect class="card" x="294" y="448" width="112" height="32" rx="5"/>
  <text class="s" x="350" y="468" text-anchor="middle">VectorStore</text>
  <rect class="card" x="418" y="448" width="172" height="32" rx="5"/>
  <text class="s" x="504" y="468" text-anchor="middle">SimilarityEngine + ANN</text>
  <rect class="chip" x="602" y="448" width="140" height="32" rx="5"/>
  <text class="s" x="672" y="468" text-anchor="middle">SimilarityCache</text>
  <rect class="chip" x="754" y="448" width="76" height="32" rx="5"/>
  <text class="s" x="792" y="468" text-anchor="middle">WAL</text>

  <text class="s" x="480" y="524" text-anchor="middle">アイドルソケットはリアクタが保持し、ワーカは応答を作る間だけ占有される。</text>
</svg>
